<?xml version="1.0" standalone="no"?>
<!DOCTYPE svg PUBLIC "-//W3C//DTD SVG 20010904//EN"
 "http://www.w3.org/TR/2001/REC-SVG-20010904/DTD/svg10.dtd">
<svg version="1.0" xmlns="http://www.w3.org/2000/svg"
 width="500.000000pt" height="500.000000pt" viewBox="0 0 500.000000 500.000000"
 preserveAspectRatio="xMidYMid meet">
<metadata>
Created by potrace 1.14, written by Peter Selinger 2001-2017
</metadata>
<g transform="translate(0.000000,500.000000) scale(0.100000,-0.100000)"
fill="#000000" stroke="none">
<path d="M2104 4560 c-193 -39 -434 -123 -600 -211 -84 -44 -281 -172 -326
-211 -14 -13 -46 -39 -69 -58 -206 -167 -428 -464 -546 -733 -75 -171 -153
-446 -153 -542 l0 -35 302 2 303 3 26 105 c41 166 113 322 217 469 l46 64 -27
51 c-15 28 -54 89 -87 135 -33 46 -60 87 -60 90 0 8 166 171 174 171 4 0 55
-36 113 -80 151 -115 149 -114 201 -79 24 16 45 29 48 29 3 0 20 10 37 23 99
72 350 174 482 194 17 3 32 6 33 8 3 3 4 115 2 505 0 90 -3 120 -12 119 -7 0
-54 -9 -104 -19z"/>
<path d="M2765 4269 c0 -169 3 -310 6 -314 4 -3 19 -8 35 -11 163 -29 350
-107 525 -220 37 -24 75 -44 84 -44 18 0 38 13 148 93 37 27 67 53 67 57 0 5
13 13 29 18 28 10 33 6 112 -74 49 -48 83 -90 81 -99 -2 -9 -27 -47 -55 -84
-29 -37 -66 -92 -81 -122 l-29 -54 53 -80 c98 -144 185 -340 216 -485 4 -19 9
-38 10 -42 1 -5 2 -15 3 -23 1 -13 42 -15 306 -15 304 0 305 0 305 21 0 46
-51 270 -85 374 -116 353 -362 711 -651 947 -288 235 -708 421 -1044 461 l-35
4 0 -308z"/>
<path d="M2489 4469 c0 -30 -1 -364 -2 -743 l-2 -690 -70 -12 c-121 -21 -203
-60 -280 -131 -94 -88 -148 -183 -172 -303 -3 -14 -6 -32 -8 -40 -2 -8 -4 -21
-4 -29 -1 -11 -76 -12 -468 -7 -643 8 -879 9 -938 2 -138 -17 -148 -21 -83
-31 24 -4 57 -9 73 -12 17 -3 44 -6 60 -9 35 -4 83 -12 165 -30 14 -2 39 -6
56 -8 16 -2 39 -6 50 -9 10 -3 35 -8 54 -11 19 -3 46 -8 60 -11 326 -64 399
-80 418 -90 23 -11 23 -13 7 -29 -12 -12 -28 -15 -56 -12 -35 4 -39 2 -39 -17
0 -12 9 -49 19 -82 47 -145 109 -267 184 -358 33 -41 38 -52 30 -70 -6 -12
-10 -24 -9 -27 0 -3 -9 -18 -20 -35 -12 -16 -32 -50 -46 -75 -14 -25 -47 -82
-74 -127 -27 -46 -56 -96 -65 -113 -9 -16 -22 -37 -29 -45 -10 -12 -10 -19 -1
-28 8 -8 14 -8 19 -2 12 17 309 218 352 239 8 4 26 13 39 20 21 13 27 11 75
-25 83 -64 373 -199 426 -199 6 0 7 26 9 173 1 54 2 57 21 45 26 -17 30 -10
20 42 -5 25 -11 69 -15 99 -4 30 -9 63 -11 75 -5 25 -13 276 -9 276 2 0 23 -8
47 -18 51 -22 140 -45 183 -46 l30 -1 2 -695 c1 -382 2 -720 3 -750 1 -60 12
-53 25 15 5 22 9 45 10 50 2 6 8 37 15 70 7 33 13 65 15 70 1 6 6 33 10 60 11
64 10 57 18 80 3 11 8 36 11 55 2 19 12 71 21 115 24 114 24 114 35 175 11 61
17 93 25 130 3 14 8 41 11 60 11 68 25 98 46 103 12 4 25 4 28 2 4 -3 7 -43 8
-90 0 -47 2 -89 5 -92 20 -19 340 120 412 179 6 5 23 19 39 33 l30 24 43 -24
c65 -37 270 -170 341 -221 34 -25 62 -41 62 -37 0 5 -19 42 -43 83 -24 41 -69
120 -101 175 -31 55 -61 107 -66 115 -5 8 -19 35 -30 59 -17 37 -18 47 -8 61
99 134 151 231 197 367 43 127 43 126 -24 125 -72 -2 -66 42 8 58 29 5 61 12
72 14 195 42 266 56 295 61 19 3 42 8 50 10 8 2 31 7 50 10 19 3 46 7 60 10
14 3 41 7 60 10 19 3 46 8 60 10 44 9 63 12 174 31 69 11 102 20 90 24 -40 15
-197 22 -434 20 -135 -2 -431 -3 -659 -4 l-414 -1 -4 30 c-7 56 -32 145 -53
185 -11 21 -20 43 -20 49 0 13 259 3 370 -14 14 -3 49 -7 78 -10 29 -3 86 -10
125 -16 40 -5 91 -12 114 -15 l42 -5 -19 68 c-38 137 -113 294 -190 399 l-41
54 83 142 c45 79 101 177 125 218 67 115 59 119 -68 34 -61 -41 -113 -74 -116
-74 -4 0 -14 -6 -22 -14 -9 -7 -55 -36 -103 -64 l-87 -51 -43 33 c-118 90
-420 225 -438 196 -3 -5 -5 -63 -4 -130 1 -108 -1 -120 -16 -120 -18 0 -36 34
-44 85 -2 17 -12 66 -21 110 -9 44 -19 89 -21 100 -2 11 -7 34 -11 50 -3 17
-7 37 -8 45 -1 8 -5 29 -9 45 -8 36 -14 70 -21 110 -3 17 -13 64 -22 105 -19
94 -32 156 -39 195 -14 80 -54 258 -59 263 -3 3 -5 -19 -6 -49z m452 -1037
c-11 -20 -27 -46 -36 -57 -16 -19 -16 -19 -10 8 7 35 47 97 57 91 4 -3 -1 -22
-11 -42z m488 -24 c-18 -24 -103 -113 -189 -199 -85 -85 -197 -199 -249 -252
-61 -63 -98 -94 -105 -89 -6 5 -37 30 -68 55 l-58 46 100 68 c55 37 133 91
173 119 39 27 131 90 202 139 72 49 150 104 174 122 24 18 46 33 48 33 3 0
-10 -19 -28 -42z m51 -486 c0 -10 -77 -62 -91 -62 -16 0 -10 15 12 30 11 8 28
20 37 27 20 14 42 17 42 5z m-803 -64 c155 -75 247 -249 221 -415 -49 -314
-401 -449 -665 -255 -150 111 -192 357 -87 523 68 109 170 168 329 192 43 6
143 -16 202 -45z m-604 -688 l37 -50 -31 -32 c-17 -18 -94 -99 -172 -179 -78
-80 -174 -179 -213 -220 -111 -116 -189 -171 -133 -93 20 27 57 78 82 114 26
36 50 70 54 75 15 18 190 289 233 360 23 39 49 81 58 95 l15 24 16 -22 c9 -13
33 -45 54 -72z m1367 -46 c36 -24 51 -44 33 -44 -17 0 -93 52 -88 61 9 13 11
12 55 -17z m-1837 9 c7 -6 -79 -62 -95 -63 -21 0 -3 22 35 44 46 28 50 29 60
19z m1588 -288 c116 -111 257 -270 248 -279 -2 -2 -75 46 -161 108 -86 61
-236 165 -333 230 -96 65 -174 122 -173 126 2 4 30 30 63 57 l60 50 86 -86
c47 -47 142 -140 210 -206z m-1122 -292 c-18 -26 -34 -50 -36 -52 -2 -3 -8 0
-13 5 -6 6 7 30 32 63 50 65 63 52 17 -16z m860 10 c27 -40 39 -73 28 -73 -6
0 -63 84 -70 103 -12 33 11 17 42 -30z"/>
<path d="M2330 2713 c-1 -5 -1 -74 0 -155 1 -167 -9 -202 -59 -213 -28 -6 -29
-8 -19 -36 9 -27 14 -30 47 -28 20 2 50 12 68 24 38 24 47 48 52 135 1 25 2
25 79 24 42 -1 80 -2 84 -3 4 0 9 -40 10 -88 l3 -88 40 -1 40 -1 1 219 1 218
-43 0 -43 0 -3 -87 -3 -88 -78 0 c-43 -1 -81 3 -84 8 -3 5 -5 45 -5 88 l1 79
-45 0 c-24 0 -44 -3 -44 -7z"/>
<path d="M1290 3700 c0 -17 31 -74 119 -218 45 -73 81 -135 81 -137 0 -3 14
-28 31 -55 31 -51 31 -51 12 -73 -85 -98 -210 -359 -225 -467 -3 -22 1 -25 27
-24 17 1 50 4 75 8 63 10 86 13 165 21 39 3 81 8 95 10 48 8 185 18 247 19
l62 1 -22 40 c-12 22 -26 44 -30 50 -4 5 -50 74 -102 152 -96 146 -194 287
-250 358 -18 22 -36 46 -40 54 -11 19 -5 16 175 -114 166 -119 499 -345 509
-345 3 0 6 37 7 83 1 77 9 171 19 227 2 14 7 43 10 65 3 22 8 48 11 58 5 16 3
17 -14 8 -12 -6 -23 -11 -26 -11 -3 0 -6 59 -6 130 0 80 -4 130 -10 130 -38 0
-309 -117 -338 -146 -7 -8 -17 -14 -22 -14 -5 0 -15 -6 -22 -12 -7 -7 -31 -25
-52 -40 -40 -27 -40 -27 -70 -9 -17 11 -52 32 -78 48 -102 61 -223 137 -228
142 -8 9 -62 46 -87 60 -16 8 -23 8 -23 1z m799 -311 c7 -21 6 -27 -2 -23 -13
4 -67 96 -67 110 1 16 59 -58 69 -87z m-514 -491 c34 -22 45 -38 26 -38 -14 0
-80 44 -81 53 0 13 20 7 55 -15z"/>
<path d="M475 2210 c-68 -5 -70 -6 -67 -30 53 -434 263 -856 585 -1175 174
-172 357 -300 578 -404 140 -65 340 -136 439 -155 14 -2 61 -12 105 -20 44 -9
86 -16 93 -16 10 0 12 66 10 312 l-3 313 -75 16 c-152 32 -319 105 -470 203
-46 31 -89 56 -95 56 -23 0 -159 -96 -223 -158 -38 -35 -53 -35 -91 1 -20 19
-58 56 -85 81 l-48 46 48 72 c27 40 52 75 56 78 10 8 68 123 68 137 0 6 -30
56 -67 110 -104 153 -156 275 -212 498 l-11 40 -232 0 c-128 0 -264 -2 -303
-5z"/>
<path d="M3980 2210 c-5 -3 -11 -17 -13 -31 -12 -62 -52 -199 -74 -249 -29
-65 -75 -161 -85 -175 -4 -5 -34 -50 -67 -99 -54 -81 -58 -91 -47 -115 22 -49
56 -106 111 -184 l55 -78 -81 -77 c-45 -42 -85 -77 -89 -77 -5 0 -43 27 -85
60 -42 33 -103 77 -134 97 l-58 36 -64 -45 c-35 -25 -71 -48 -79 -51 -8 -4
-44 -24 -80 -44 -98 -55 -249 -109 -400 -142 l-25 -5 0 -311 0 -311 43 5 c23
3 46 7 50 9 4 3 29 8 55 11 137 19 417 118 595 211 103 55 254 151 260 167 2
4 10 8 17 8 7 0 15 3 17 8 2 4 32 31 68 61 138 115 287 282 392 439 129 195
252 486 292 698 19 97 29 175 23 181 -9 8 -583 11 -597 3z"/>
</g>
</svg>
